<svg xmlns="http://www.w3.org/2000/svg" viewBox="0 0 512 512">
  <rect width="512" height="512" fill="#F5F1E8"/>
  <path d="M256,40 C265,40 273,48 273,58 L273,454 C273,464 265,472 256,472 C247,472 239,464 239,454 L239,58 C239,48 247,40 256,40 Z" fill="#801B2E"/>
  <path d="M360,40 C369,40 377,48 377,58 L377,200 C377,300 256,330 256,450 C256,460 248,468 238,468 C228,468 220,460 220,450 C220,330 99,300 99,200 L99,58 C99,48 107,40 116,40 C125,40 133,48 133,58 L133,160 C133,180 150,180 150,180 L150,58 C150,48 158,40 167,40 C176,40 184,48 184,58 L184,180 C184,180 200,180 200,160 L200,58 C200,48 208,40 217,40 C226,40 234,48 234,58 L234,160 C234,220 256,250 256,250 C256,250 280,220 280,160 L280,58 C280,48 288,40 297,40 C306,40 314,48 314,58 L314,180 C314,180 330,180 330,160 L330,58 C330,48 338,40 347,40 C356,40 360,48 360,58 Z" fill="#801B2E"/>
</svg>
